<svg id="Capa_1" data-name="Capa 1" xmlns="http://www.w3.org/2000/svg" viewBox="0 0 474 165.6"><defs><style>.cls-1{fill:#7861a7;}</style></defs><title>LOGO CATSIFU</title><path class="cls-1" d="M37,134.24A38.86,38.86,0,0,1,37,82,32.52,32.52,0,0,1,62.11,70.88,32.7,32.7,0,0,1,86.36,81.32q1.5,1.47-.15,2.94L74.54,94a1.7,1.7,0,0,1-2.69,0,14.14,14.14,0,0,0-9.74-4.12,14,14,0,0,0-11,5.37,20.41,20.41,0,0,0,0,25.72,14,14,0,0,0,11,5.36,13.49,13.49,0,0,0,10-4.55A2.08,2.08,0,0,1,75,121.6L86.81,131c1.2.88,1.29,1.91.3,3.08q-10.48,11.17-25,11.18A32.63,32.63,0,0,1,37,134.24Z"/><path class="cls-1" d="M139.73,74.18a28.78,28.78,0,0,1,9.21,7.43q6.28,8.24,6.29,21v39.25a1.85,1.85,0,0,1-2.1,2.07H138a1.84,1.84,0,0,1-2.1-2.07v-4.11q-7,7.2-15.71,7.2a27.87,27.87,0,0,1-18-6.1q-7.56-6.1-7.57-17.13,0-12.8,7.94-19t19.9-6.24a30.77,30.77,0,0,1,13.18,2.94q-.9-6-4.42-8.53a12.84,12.84,0,0,0-6.81-2.64,17.32,17.32,0,0,0-13.47,4.55,1.94,1.94,0,0,1-2.85-.14l-8.53-8.09a1.94,1.94,0,0,1,0-2.94Q110,70.87,126.18,70.88A28,28,0,0,1,139.73,74.18Zm-22,40.36a7.23,7.23,0,0,0-3.37,6.46,5.84,5.84,0,0,0,2.1,4.71,8.64,8.64,0,0,0,3.59,2.06,13.73,13.73,0,0,0,2.69.3q12.42,0,13-14.26a33.76,33.76,0,0,0-10.92-1.76A14.83,14.83,0,0,0,117.72,114.54Z"/><path class="cls-1" d="M181.79,137a27,27,0,0,1-8.16-19.69V65.76H88.84a1.84,1.84,0,0,1-2.1-2.06V50.18a1.84,1.84,0,0,1,2.1-2.06h84.79V26.51a2.09,2.09,0,0,1,.6-1.39,1.94,1.94,0,0,1,1.5-.66H191a1.91,1.91,0,0,1,1.49.66,2,2,0,0,1,.6,1.39V48.12H347.5a1.83,1.83,0,0,1,2.09,2.06V63.71a1.84,1.84,0,0,1-2.09,2.06H193.09v51.58c0,3.43,1.2,6,3.59,7.64q3.6,2.79,9.88,1.62a1.94,1.94,0,0,1,2.39,1.47l3.75,13.53c.5,1.36,0,2.25-1.5,2.64a41.75,41.75,0,0,1-9,1Q190,145.25,181.79,137Z"/><path class="cls-1" d="M219.59,136.15c-1.1-.69-1.25-1.62-.45-2.8l7-11.32c.7-1.28,1.7-1.47,3-.59q8.84,5.58,16.32,6c4.79.3,7.18-1,7.18-3.82a4.38,4.38,0,0,0-2-3.67c-1.34-1-4.42-2.31-9.2-4Q222,109.09,222,91a18.47,18.47,0,0,1,6.58-14.55q6.6-5.73,18.42-5.73t22.6,9.7q1.65,1.47.15,2.94l-8.53,9.56a2.2,2.2,0,0,1-3,0,17.66,17.66,0,0,0-10.48-4.71q-6.88-.45-6.89,4.26a4.07,4.07,0,0,0,1.87,3.6,53.23,53.23,0,0,0,8.3,3.75c1.3.59,2.35,1,3.15,1.33q9,3.51,13.17,8.89t4.19,13.89q0,8.38-7,14.85t-18.34,6.47Q233.51,145.26,219.59,136.15Z"/><path class="cls-1" d="M281.26,141.88V74a1.84,1.84,0,0,1,2.09-2.06h15.27a1.84,1.84,0,0,1,2.1,2.06v67.92a1.84,1.84,0,0,1-2.1,2.06H283.35A1.84,1.84,0,0,1,281.26,141.88Z"/><path class="cls-1" d="M322,141.88V65.76H313.3a1.84,1.84,0,0,1-2.1-2.06V50.18a1.84,1.84,0,0,1,2.1-2.06H322V46.21a35.82,35.82,0,0,1,3.14-15A26.16,26.16,0,0,1,334,20.34q9.87-6.9,23.5-3.23a1.93,1.93,0,0,1,1.35,2.79l-3.44,12.64c-.29,1.09-1.1,1.52-2.39,1.33a10.18,10.18,0,0,0-7.63,1.33,8.8,8.8,0,0,0-2.77,4.41,20,20,0,0,0-1.12,6.61v1.91H363.6a1.84,1.84,0,0,1,2.1,2.07V63.72a1.85,1.85,0,0,1-2.1,2.07H341.45v76.12a1.84,1.84,0,0,1-2.1,2.06H324.08A1.87,1.87,0,0,1,322,141.88Z"/><path class="cls-1" d="M373.24,134.46q-7.55-10.52-7.55-32.86V74a1.84,1.84,0,0,1,2.09-2.06h15.27a1.84,1.84,0,0,1,2.1,2.06V104.1q0,10.73,2.62,16.39t10.1,5.66q6.28,0,9.81-3.6c2.34-2.4,3.92-6.78,4.71-13.16V74a1.84,1.84,0,0,1,2.1-2.06h15.26a1.84,1.84,0,0,1,2.1,2.06v67.92a1.84,1.84,0,0,1-2.1,2.06H414.48a1.84,1.84,0,0,1-2.1-2.06v-5.15A19.37,19.37,0,0,1,396.07,145Q380.8,145,373.24,134.46Z"/><path class="cls-1" d="M411.73,65.86H386.12a.83.83,0,0,1-.83-.82v-16a.83.83,0,0,1,.83-.83h25.61a.83.83,0,0,1,.83.83V65A.83.83,0,0,1,411.73,65.86Z"/></svg>